<svg xmlns="http://www.w3.org/2000/svg" viewBox="0 0 237 237"><defs><style>.cls-1,.cls-2{fill:none;stroke:#ecf3c5;stroke-linecap:round;stroke-linejoin:round;}.cls-1{stroke-width:12px;}.cls-2{stroke-width:7px;}</style></defs><g id="Text"><rect class="cls-1" x="6" y="6" width="225" height="225" rx="20"/><g id="scissor"><line class="cls-2" x1="120.33" y1="144.68" x2="131.59" y2="157.77"/><path class="cls-2" d="M118.5,107,71.12,46.5C62.86,61.67,65,81.09,76.38,93.6l27.05,31.45"/><line class="cls-2" x1="147.95" y1="144.68" x2="134.86" y2="127.95"/><path class="cls-2" d="M90.68,144.68,167.52,46.5c8.25,15.17,6.08,34.59-5.26,47.1l-56.85,67.45"/><path class="cls-2" d="M120.14,123.41a1.64,1.64,0,1,1-1.64,1.64,1.63,1.63,0,0,1,1.64-1.64"/><circle class="cls-2" cx="82.5" cy="167.59" r="22.91"/><circle class="cls-2" cx="82.5" cy="167.59" r="9.82"/><circle class="cls-2" cx="154.5" cy="167.59" r="22.91"/><circle class="cls-2" cx="154.5" cy="167.59" r="9.82"/></g></g></svg>