<svg xmlns="http://www.w3.org/2000/svg" viewBox="0 0 237 237"><defs><style>.cls-1,.cls-2{fill:none;stroke:#fff;stroke-linecap:round;stroke-linejoin:round;}.cls-1{stroke-width:12px;}.cls-2{stroke-width:7px;}</style></defs><g id="Text"><rect class="cls-1" x="6" y="6" width="225" height="225" rx="20"/><path class="cls-2" d="M166.18,103.2v48a39.31,39.31,0,0,1-39.3,39.3H110.12a39.31,39.31,0,0,1-39.3-39.3V103.81"/><path class="cls-2" d="M70.82,103.84V58.42A11.92,11.92,0,0,1,82.74,46.5h0A11.92,11.92,0,0,1,94.66,58.42v45.42"/><path class="cls-2" d="M142.34,103.84V58.42A11.92,11.92,0,0,1,154.26,46.5h0a11.92,11.92,0,0,1,11.92,11.92v45.42"/><path class="cls-2" d="M94.66,116.08V93.86a11.92,11.92,0,0,1,11.92-11.92h0A11.92,11.92,0,0,1,118.5,93.86V100"/><path class="cls-2" d="M118.5,117.78V93.86a11.92,11.92,0,0,1,11.92-11.92h0a11.92,11.92,0,0,1,11.92,11.92v29a11.92,11.92,0,0,1-11.92,11.92h0a11.81,11.81,0,0,1-6.66-2"/><path class="cls-2" d="M70.82,130.08a14,14,0,0,1,14-14h27.56A11.92,11.92,0,0,1,124.3,128h0a11.92,11.92,0,0,1-11.92,11.92H93.82"/><path class="cls-2" d="M107.55,139.92a12.89,12.89,0,0,1,12.88,12.89v8.37"/></g></svg>