<svg xmlns="http://www.w3.org/2000/svg" viewBox="0 0 237 237"><defs><style>.cls-1,.cls-2{fill:none;stroke:#fff;stroke-linecap:round;stroke-linejoin:round;}.cls-1{stroke-width:12px;}.cls-2{stroke-width:7px;}</style></defs><g id="Text"><rect class="cls-1" x="6" y="6" width="225" height="225" rx="20"/><path class="cls-2" d="M98.12,49.5H85.56A12.53,12.53,0,0,0,73,62V168.68"/><polyline class="cls-2" points="154.56 74.6 154.56 68.75 154.56 68.32"/><path class="cls-2" d="M98.12,49.5h69A12.54,12.54,0,0,1,179.66,62v6.71h-25.1"/><path class="cls-2" d="M167.12,49.5A12.55,12.55,0,0,0,154.56,62v6.28"/><path class="cls-2" d="M142,187.5A12.53,12.53,0,0,1,129.48,175v-6.28h-69a3.15,3.15,0,0,0-3.14,3.14V175A12.53,12.53,0,0,0,69.88,187.5H142A12.53,12.53,0,0,0,154.56,175V74.6"/></g></svg>